HIERARCHY
ROOT hip
{
	OFFSET 0.000000 103.560692 0.219151
	CHANNELS 6 Xposition Yposition Zposition Zrotation Xrotation Yrotation
	JOINT pelvis
	{
		OFFSET 0.000000 1.955040 1.591925
		CHANNELS 3 Zrotation Xrotation Yrotation
		JOINT lThigh
		{
			OFFSET 8.341582 -7.629402 -0.646910
			CHANNELS 3 Zrotation Xrotation Yrotation
			JOINT lShin
			{
				OFFSET 2.185763 -45.093132 -0.705710
				CHANNELS 3 Zrotation Xrotation Yrotation
				JOINT lFoot
				{
					OFFSET 0.730976 -46.379768 -2.264282
					CHANNELS 3 Zrotation Xrotation Yrotation
					JOINT lToe
					{
						OFFSET 2.797621 -4.200020 10.742415
						CHANNELS 3 Zrotation Xrotation Yrotation
						JOINT lBigToe
						{
							OFFSET -2.433708 -0.269072 1.841711
							CHANNELS 3 Zrotation Xrotation Yrotation
							End Site
							{
								OFFSET -10.527346 -33.657166 -1.340707
							}
						}
					}
				}
			}
		}
		JOINT rThigh
		{
			OFFSET -8.341582 -7.629402 -0.646910
			CHANNELS 3 Zrotation Xrotation Yrotation
			JOINT rShin
			{
				OFFSET -2.185763 -45.093132 -0.705710
				CHANNELS 3 Zrotation Xrotation Yrotation
				JOINT rFoot
				{
					OFFSET -0.730976 -46.379768 -2.264282
					CHANNELS 3 Zrotation Xrotation Yrotation
					JOINT rToe
					{
						OFFSET -2.797621 -4.200019 10.742415
						CHANNELS 3 Zrotation Xrotation Yrotation
						JOINT rBigToe
						{
							OFFSET 2.433708 -0.269072 1.841711
							CHANNELS 3 Zrotation Xrotation Yrotation
							End Site
							{
								OFFSET 0.000000 24.298409 -0.425647
							}
						}
					}
				}
			}
		}
	}
	JOINT abdomen
	{
		OFFSET 0.000000 1.841293 -3.551421
		CHANNELS 3 Zrotation Xrotation Yrotation
		JOINT abdomen2
		{
			OFFSET 0.000000 5.439911 3.419600
			CHANNELS 3 Zrotation Xrotation Yrotation
			JOINT chest
			{
				OFFSET 0.000000 14.715073 -2.918270
				CHANNELS 3 Zrotation Xrotation Yrotation
				JOINT neck
				{
					OFFSET 0.000000 26.294655 -1.248052
					CHANNELS 3 Zrotation Xrotation Yrotation
					JOINT head
					{
						OFFSET 0.000000 8.807068 1.063695
						CHANNELS 3 Zrotation Xrotation Yrotation
						JOINT rEye
						{
							OFFSET -3.030866 6.632080 7.702687
							CHANNELS 3 Zrotation Xrotation Yrotation
							End Site
							{
								OFFSET 2.969555 -11.022598 8.626689
							}
						}
						JOINT lEye
						{
							OFFSET 3.030866 6.632080 7.702687
							CHANNELS 3 Zrotation Xrotation Yrotation
							End Site
							{
								OFFSET 0.000000 -15.881760 10.104412
							}
						}
						JOINT upperJaw
						{
							OFFSET 0.000000 1.922699 2.891887
							CHANNELS 3 Zrotation Xrotation Yrotation
							End Site
							{
								OFFSET 0.000000 -19.386169 10.230839
							}
						}
						JOINT lowerJaw
						{
							OFFSET 0.000000 1.857620 2.686640
							CHANNELS 3 Zrotation Xrotation Yrotation
							JOINT tongueBase
							{
								OFFSET 0.000000 -3.019135 2.746916
								CHANNELS 3 Zrotation Xrotation Yrotation
								JOINT tongue01
								{
									OFFSET 0.000000 0.664124 0.223355
									CHANNELS 3 Zrotation Xrotation Yrotation
									JOINT tongue02
									{
										OFFSET 0.000000 0.339737 0.715627
										CHANNELS 3 Zrotation Xrotation Yrotation
										JOINT tongue03
										{
											OFFSET 0.000000 0.123444 0.730634
											CHANNELS 3 Zrotation Xrotation Yrotation
											JOINT tongue04
											{
												OFFSET 0.000000 0.017212 0.737415
												CHANNELS 3 Zrotation Xrotation Yrotation
												JOINT tongue05
												{
													OFFSET 0.000000 -0.021011 0.632440
													CHANNELS 3 Zrotation Xrotation Yrotation
													JOINT tongueTip
													{
														OFFSET 0.000000 -0.014404 0.601796
														CHANNELS 3 Zrotation Xrotation Yrotation
														End Site
														{
															OFFSET -14.139406 -2.625778 0.472826
														}
													}
												}
											}
										}
									}
								}
							}
						}
					}
				}
				JOINT rCollar
				{
					OFFSET -2.109295 21.452370 3.768136
					CHANNELS 3 Zrotation Xrotation Yrotation
					JOINT rShldr
					{
						OFFSET -11.491621 -2.568573 -4.940255
						CHANNELS 3 Zrotation Xrotation Yrotation
						JOINT rForeArm
						{
							OFFSET -28.789030 -0.213806 2.098380
							CHANNELS 3 Zrotation Xrotation Yrotation
							JOINT rHand
							{
								OFFSET -22.260895 -0.869583 10.391586
								CHANNELS 3 Zrotation Xrotation Yrotation
								JOINT rThumb1
								{
									OFFSET -0.628075 0.137405 2.362409
									CHANNELS 3 Zrotation Xrotation Yrotation
									JOINT rThumb2
									{
										OFFSET 0.085205 -0.600235 3.826079
										CHANNELS 3 Zrotation Xrotation Yrotation
										JOINT rThumb3
										{
											OFFSET -1.255478 -0.879211 2.439162
											CHANNELS 3 Zrotation Xrotation Yrotation
											End Site
											{
												OFFSET -2.963715 0.538574 4.059553
											}
										}
									}
								}
								JOINT rCarpal1
								{
									OFFSET -0.855530 1.026047 1.621985
									CHANNELS 3 Zrotation Xrotation Yrotation
									JOINT rIndex1
									{
										OFFSET -3.951324 0.390884 3.873290
										CHANNELS 3 Zrotation Xrotation Yrotation
										JOINT rIndex2
										{
											OFFSET -3.071884 -1.259598 2.506104
											CHANNELS 3 Zrotation Xrotation Yrotation
											JOINT rIndex3
											{
												OFFSET -1.394112 -1.446640 1.203302
												CHANNELS 3 Zrotation Xrotation Yrotation
												End Site
												{
													OFFSET -3.392448 -1.258026 0.533405
												}
											}
										}
									}
									JOINT rMid1
									{
										OFFSET -5.422974 0.107910 2.002650
										CHANNELS 3 Zrotation Xrotation Yrotation
										JOINT rMid2
										{
											OFFSET -3.599533 -1.323776 2.090647
											CHANNELS 3 Zrotation Xrotation Yrotation
											JOINT rMid3
											{
												OFFSET -1.360191 -1.598495 1.068055
												CHANNELS 3 Zrotation Xrotation Yrotation
												End Site
												{
													OFFSET -4.087769 -0.460876 0.069540
												}
											}
										}
									}
								}
								JOINT rCarpal2
								{
									OFFSET -1.942749 0.556229 -0.337217
									CHANNELS 3 Zrotation Xrotation Yrotation
									JOINT rRing1
									{
										OFFSET -4.762787 -0.121170 2.349089
										CHANNELS 3 Zrotation Xrotation Yrotation
										JOINT rRing2
										{
											OFFSET -3.380348 -1.337097 1.356700
											CHANNELS 3 Zrotation Xrotation Yrotation
											JOINT rRing3
											{
												OFFSET -1.430290 -1.499649 0.914224
												CHANNELS 3 Zrotation Xrotation Yrotation
												End Site
												{
													OFFSET -1.783272 -2.215851 -0.391895
												}
											}
										}
									}
									JOINT rPinky1
									{
										OFFSET -5.232559 -1.313721 0.336493
										CHANNELS 3 Zrotation Xrotation Yrotation
										JOINT rPinky2
										{
											OFFSET -2.217606 -1.389603 0.800693
											CHANNELS 3 Zrotation Xrotation Yrotation
											JOINT rPinky3
											{
												OFFSET -0.886887 -1.462280 0.774199
												CHANNELS 3 Zrotation Xrotation Yrotation
												End Site
												{
													OFFSET 14.139406 -2.625778 0.472826
												}
											}
										}
									}
								}
							}
						}
					}
				}
				JOINT lCollar
				{
					OFFSET 2.109295 21.452370 3.768136
					CHANNELS 3 Zrotation Xrotation Yrotation
					JOINT lShldr
					{
						OFFSET 11.491621 -2.568573 -4.940255
						CHANNELS 3 Zrotation Xrotation Yrotation
						JOINT lForeArm
						{
							OFFSET 28.789030 -0.213806 2.098380
							CHANNELS 3 Zrotation Xrotation Yrotation
							JOINT lHand
							{
								OFFSET 22.260895 -0.869583 10.391586
								CHANNELS 3 Zrotation Xrotation Yrotation
								JOINT lThumb1
								{
									OFFSET 0.628075 0.137405 2.362409
									CHANNELS 3 Zrotation Xrotation Yrotation
									JOINT lThumb2
									{
										OFFSET -0.085205 -0.600235 3.826079
										CHANNELS 3 Zrotation Xrotation Yrotation
										JOINT lThumb3
										{
											OFFSET 1.255478 -0.879211 2.439162
											CHANNELS 3 Zrotation Xrotation Yrotation
											End Site
											{
												OFFSET 2.963715 0.538574 4.059553
											}
										}
									}
								}
								JOINT lCarpal1
								{
									OFFSET 0.855530 1.026047 1.621985
									CHANNELS 3 Zrotation Xrotation Yrotation
									JOINT lIndex1
									{
										OFFSET 3.951324 0.390884 3.873290
										CHANNELS 3 Zrotation Xrotation Yrotation
										JOINT lIndex2
										{
											OFFSET 3.071884 -1.259598 2.506104
											CHANNELS 3 Zrotation Xrotation Yrotation
											JOINT lIndex3
											{
												OFFSET 1.394112 -1.446640 1.203302
												CHANNELS 3 Zrotation Xrotation Yrotation
												End Site
												{
													OFFSET 3.392448 -1.258026 0.533405
												}
											}
										}
									}
									JOINT lMid1
									{
										OFFSET 5.422974 0.107910 2.002650
										CHANNELS 3 Zrotation Xrotation Yrotation
										JOINT lMid2
										{
											OFFSET 3.599533 -1.323776 2.090647
											CHANNELS 3 Zrotation Xrotation Yrotation
											JOINT lMid3
											{
												OFFSET 1.360191 -1.598495 1.068055
												CHANNELS 3 Zrotation Xrotation Yrotation
												End Site
												{
													OFFSET 4.087769 -0.460876 0.069540
												}
											}
										}
									}
								}
								JOINT lCarpal2
								{
									OFFSET 1.942749 0.556229 -0.337217
									CHANNELS 3 Zrotation Xrotation Yrotation
									JOINT lRing1
									{
										OFFSET 4.762787 -0.121170 2.349089
										CHANNELS 3 Zrotation Xrotation Yrotation
										JOINT lRing2
										{
											OFFSET 3.380348 -1.337097 1.356700
											CHANNELS 3 Zrotation Xrotation Yrotation
											JOINT lRing3
											{
												OFFSET 1.430290 -1.499649 0.914224
												CHANNELS 3 Zrotation Xrotation Yrotation
												End Site
												{
													OFFSET 1.783272 -2.215851 -0.391895
												}
											}
										}
									}
									JOINT lPinky1
									{
										OFFSET 5.232559 -1.313721 0.336493
										CHANNELS 3 Zrotation Xrotation Yrotation
										JOINT lPinky2
										{
											OFFSET 2.217606 -1.389603 0.800693
											CHANNELS 3 Zrotation Xrotation Yrotation
											JOINT lPinky3
											{
												OFFSET 0.886887 -1.462280 0.774199
												CHANNELS 3 Zrotation Xrotation Yrotation
												End Site
												{
													OFFSET -10.295957 -17.050110 17.461308
												}
											}
										}
									}
								}
							}
						}
					}
				}
				JOINT rPectoral
				{
					OFFSET -6.358840 6.360771 6.369920
					CHANNELS 3 Zrotation Xrotation Yrotation
					End Site
					{
						OFFSET 10.295957 -17.050110 17.461308
					}
				}
				JOINT lPectoral
				{
					OFFSET 6.358840 6.360771 6.369920
					CHANNELS 3 Zrotation Xrotation Yrotation
					End Site
					{
						OFFSET 10.295957 -17.050110 17.461308
					}
				}
			}
		}
	}
}
MOTION
Frames:	4
Frame Time:	0.0333333
19.436419 -0.836943 131.221100 -0.830473 2.550944 25.580263 0.000000 0.000000 0.000000 -7.481615 -15.330503 2.192402 -2.523487 18.295450 -5.138008 13.972208 -21.148794 -9.832139 4.481791 -7.514233 1.538472 0.000000 0.000000 0.000000 -9.372290 -22.417334 -11.021555 -6.614092 61.077137 2.075745 3.564547 -9.857831 5.969991 -4.955118 -8.890580 -1.498356 0.000000 0.000000 0.000000 10.768533 -9.432902 1.267237 0.000000 0.000000 0.000000 -17.797169 7.223296 4.876999 1.550296 -7.597201 2.256197 1.047667 14.314606 3.049048 0.000000 0.000000 0.000000 0.000000 0.000000 0.000000 0.000000 0.000000 0.000000 0.000000 0.000000 0.000000 0.000000 0.000000 0.000000 0.000000 0.000000 0.000000 0.000000 0.000000 0.000000 0.000000 0.000000 0.000000 0.000000 0.000000 0.000000 0.000000 0.000000 0.000000 0.000000 0.000000 0.000000 12.842451 0.535549 -0.810762 42.954575 40.291267 28.878389 2.609108 -8.262672 -18.851690 -2.975570 -1.669754 7.607443 -20.278101 15.997745 -11.245070 -5.406475 -14.233100 9.902917 -16.386185 20.674324 16.306753 0.000000 0.000000 0.000000 -10.344722 -8.555511 -17.047894 -7.447639 -4.503490 -1.783426 -12.634918 -9.968566 -2.356016 -8.647417 -3.307343 -7.176109 -0.594737 3.049747 -3.815813 0.477367 4.595480 -2.175193 0.000000 0.000000 0.000000 -4.053409 -6.935108 0.570711 16.377953 9.700567 -7.263687 1.274629 8.359100 -3.952725 -18.864351 -24.497574 -13.525259 48.465355 21.906361 -10.696066 34.311016 26.749933 -1.842245 -4.124445 -0.104703 4.369193 -59.884216 18.446251 -6.120174 -6.490893 -8.256786 16.513041 6.576926 -2.976846 5.158260 15.319375 21.766415 8.847219 9.897357 -11.660407 7.278462 18.869974 24.455250 -9.597977 0.000000 0.000000 0.000000 11.364023 -8.970807 17.507399 7.742449 -6.475732 0.297233 7.669960 -5.979775 1.302682 9.657770 -3.689982 7.578338 1.672497 2.702245 3.958704 -3.523009 6.268773 1.440409 0.000000 0.000000 0.000000 5.501368 -6.680588 1.170439 -14.897585 10.505441 6.875091 -11.617700 10.916432 0.445627 20.891180 -24.279835 15.016870 -47.080284 22.724037 10.346928 -40.793648 22.744884 -2.181902 0.038495 -0.001814 -0.113021 -0.141704 -0.007052 0.416093 
20.264708 -0.284618 133.857422 -1.931902 2.259838 27.348595 0.000000 0.000000 0.000000 -6.590244 -12.722457 1.800081 -1.844960 16.152451 -6.865032 13.590346 -21.597948 -9.704874 4.493607 -7.529609 1.544757 0.000000 0.000000 0.000000 -7.654208 -26.133583 -9.217830 -6.943461 57.621292 0.623719 3.043200 -11.667224 5.429368 -4.954080 -8.886958 -1.498572 0.000000 0.000000 0.000000 9.580035 -10.088284 0.252848 0.000000 0.000000 0.000000 -14.147388 9.090799 3.408782 0.903162 -8.898191 2.815005 0.158746 14.439874 3.687800 0.000000 0.000000 0.000000 0.000000 0.000000 0.000000 0.000000 0.000000 0.000000 0.000000 0.000000 0.000000 0.000000 0.000000 0.000000 0.000000 0.000000 0.000000 0.000000 0.000000 0.000000 0.000000 0.000000 0.000000 0.000000 0.000000 0.000000 0.000000 0.000000 0.000000 0.000000 0.000000 0.000000 12.836743 0.308662 -1.951366 45.145496 40.919594 24.230011 3.528115 -5.077297 -19.692511 -0.863667 -0.409523 6.285402 -20.278101 15.997745 -11.245070 -5.406475 -14.233100 9.902917 -16.386185 20.674324 16.306753 0.000000 0.000000 0.000000 -10.344722 -8.555511 -17.047894 -7.447639 -4.503490 -1.783426 -12.634918 -9.968566 -2.356016 -8.647417 -3.307343 -7.176109 -0.594737 3.049747 -3.815813 0.477367 4.595480 -2.175193 0.000000 0.000000 0.000000 -4.053409 -6.935108 0.570711 16.377953 9.700567 -7.263687 1.274629 8.359100 -3.952725 -18.864351 -24.497574 -13.525259 48.465355 21.906361 -10.696066 34.311016 26.749933 -1.842245 -2.851723 -0.027712 3.756007 -60.224190 19.566704 -11.341931 -6.177936 -10.533225 15.511010 7.654892 -3.591540 3.477765 15.319375 21.766415 8.847219 9.897357 -11.660407 7.278462 18.869974 24.455250 -9.597977 0.000000 0.000000 0.000000 11.364023 -8.970807 17.507399 7.742449 -6.475732 0.297233 7.669960 -5.979775 1.302682 9.657770 -3.689982 7.578338 1.672497 2.702245 3.958704 -3.523009 6.268773 1.440409 0.000000 0.000000 0.000000 5.501368 -6.680588 1.170439 -14.897585 10.505441 6.875091 -11.617700 10.916432 0.445627 20.891180 -24.279835 15.016870 -47.080284 22.724037 10.346928 -40.793648 22.744884 -2.181902 0.075542 -0.003631 -0.221801 -0.121261 -0.005971 0.356059 
20.979210 0.309999 136.614319 -3.009670 1.586542 30.804010 0.000000 0.000000 0.000000 -5.680923 -9.680368 -2.573200 -1.581965 13.491471 -6.713363 13.221031 -21.395229 -9.663268 4.530729 -7.603091 1.554460 0.000000 0.000000 0.000000 -6.205162 -28.068094 -8.444380 -6.463531 51.763687 -1.649411 3.125518 -12.652827 5.437251 -4.952073 -8.879986 -1.498955 0.000000 0.000000 0.000000 7.894745 -10.423645 -2.228843 0.000000 0.000000 0.000000 -10.038716 10.474004 0.743779 -0.329997 -9.975636 3.828298 0.159099 14.661085 4.343704 0.000000 0.000000 0.000000 0.000000 0.000000 0.000000 0.000000 0.000000 0.000000 0.000000 0.000000 0.000000 0.000000 0.000000 0.000000 0.000000 0.000000 0.000000 0.000000 0.000000 0.000000 0.000000 0.000000 0.000000 0.000000 0.000000 0.000000 0.000000 0.000000 0.000000 0.000000 0.000000 0.000000 12.585446 0.091629 -3.037347 47.299175 41.887817 20.264872 3.528439 -2.517292 -21.756502 1.292394 0.785396 4.079861 -20.278101 15.997745 -11.245070 -5.406475 -14.233100 9.902917 -16.386185 20.674324 16.306753 0.000000 0.000000 0.000000 -10.344722 -8.555511 -17.047894 -7.447639 -4.503490 -1.783426 -12.634918 -9.968566 -2.356016 -8.647417 -3.307343 -7.176109 -0.594737 3.049747 -3.815813 0.477367 4.595480 -2.175193 0.000000 0.000000 0.000000 -4.053409 -6.935108 0.570711 16.377953 9.700567 -7.263687 1.274629 8.359100 -3.952725 -18.864351 -24.497574 -13.525259 48.465355 21.906361 -10.696066 34.311016 26.749933 -1.842245 -1.253310 0.001838 3.483705 -60.462597 20.901245 -15.646949 -4.557886 -13.794587 14.191227 5.321525 -2.597128 1.352232 15.319375 21.766415 8.847219 9.897357 -11.660407 7.278462 18.869974 24.455250 -9.597977 0.000000 0.000000 0.000000 11.364023 -8.970807 17.507399 7.742449 -6.475732 0.297233 7.669960 -5.979775 1.302682 9.657770 -3.689982 7.578338 1.672497 2.702245 3.958704 -3.523009 6.268773 1.440409 0.000000 0.000000 0.000000 5.501368 -6.680588 1.170439 -14.897585 10.505441 6.875091 -11.617700 10.916432 0.445627 20.891180 -24.279835 15.016870 -47.080284 22.724037 10.346928 -40.793648 22.744884 -2.181902 0.110283 -0.005399 -0.323819 -0.112143 -0.005495 0.329282 
21.958864 0.781037 140.564468 -3.122178 0.539160 35.016720 0.000000 0.000000 0.000000 -4.326808 -4.694834 -4.683574 -1.283753 9.919649 -9.358913 11.039467 -21.470711 -9.344628 4.661698 -7.827964 1.601854 0.000000 0.000000 0.000000 -5.125243 -28.594929 -5.031946 -3.762656 41.694149 -5.919847 2.739951 -11.492451 4.453724 -4.948673 -8.867894 -1.499822 0.000000 0.000000 0.000000 2.483069 -8.971070 -4.118015 0.000000 0.000000 0.000000 -2.280470 11.086409 -2.385563 0.655219 -10.225334 3.535906 -2.373667 13.834901 5.090020 0.000000 0.000000 0.000000 0.000000 0.000000 0.000000 0.000000 0.000000 0.000000 0.000000 0.000000 0.000000 0.000000 0.000000 0.000000 0.000000 0.000000 0.000000 0.000000 0.000000 0.000000 0.000000 0.000000 0.000000 0.000000 0.000000 0.000000 0.000000 0.000000 0.000000 0.000000 0.000000 0.000000 11.950096 -0.267700 -4.905523 52.774372 37.892002 11.240167 3.763208 1.491195 -22.530809 2.196797 1.237878 1.094866 -20.278101 15.997745 -11.245070 -5.406475 -14.233100 9.902917 -16.386185 20.674324 16.306753 0.000000 0.000000 0.000000 -10.344722 -8.555511 -17.047894 -7.447639 -4.503490 -1.783426 -12.634918 -9.968566 -2.356016 -8.647417 -3.307343 -7.176109 -0.594737 3.049747 -3.815813 0.477367 4.595480 -2.175193 0.000000 0.000000 0.000000 -4.053409 -6.935108 0.570711 16.377953 9.700567 -7.263687 1.274629 8.359100 -3.952725 -18.864351 -24.497574 -13.525259 48.465355 21.906361 -10.696066 34.311016 26.749933 -1.842245 0.832731 -0.005842 3.579665 -58.998253 23.387465 -22.927725 -3.256743 -17.749012 13.629387 4.221199 -2.139100 -0.018265 15.319375 21.766415 8.847219 9.897357 -11.660407 7.278462 18.869974 24.455250 -9.597977 0.000000 0.000000 0.000000 11.364023 -8.970807 17.507399 7.742449 -6.475732 0.297233 7.669960 -5.979775 1.302682 9.657770 -3.689982 7.578338 1.672497 2.702245 3.958704 -3.523009 6.268773 1.440409 0.000000 0.000000 0.000000 5.501368 -6.680588 1.170439 -14.897585 10.505441 6.875091 -11.617700 10.916432 0.445627 20.891180 -24.279835 15.016870 -47.080284 22.724037 10.346928 -40.793648 22.744884 -2.181902 0.169639 -0.008563 -0.498137 -0.115564 -0.005673 0.339327 
